<?xml version="1.0" encoding="iso-8859-1"?>
<!-- Generator: Adobe Illustrator 19.0.0, SVG Export Plug-In . SVG Version: 6.00 Build 0)  -->
<svg version="1.1" id="Layer_1" xmlns="http://www.w3.org/2000/svg" xmlns:xlink="http://www.w3.org/1999/xlink" x="0px" y="0px"
	 viewBox="0 0 512 512" style="enable-background:new 0 0 512 512;" xml:space="preserve">
<path style="fill:#6B6B6B;" d="M0,355.201v-324c0.103-5.701,4.699-10.297,10.4-10.4h491.2c5.701,0.103,10.297,4.699,10.4,10.4v324H0
	z"/>
<path d="M512,355.201v41.6c-0.103,5.701-4.699,10.297-10.4,10.4H10.4c-5.701-0.103-10.297-4.699-10.4-10.4v-41.6H512z"/>
<rect x="146.401" y="480.799" width="219.197" height="10.4"/>
<polygon style="fill:#6B6B6B;" points="328.8,480.802 183.2,480.802 193.6,407.202 318.4,407.202 "/>
<rect x="20.802" y="41.605" width="470.397" height="292.803"/>
<polygon points="318.4,407.202 193.6,407.202 187.793,448.282 320.272,420.426 "/>
<g>
	
		<rect x="377.443" y="221.163" transform="matrix(0.7071 -0.7071 0.7071 0.7071 -62.1292 348.3394)" style="fill:#FFFFFF;" width="23.951" height="56.007"/>
	<polygon style="fill:#FFFFFF;" points="353.273,265.505 404.929,213.849 342.4,202.978 	"/>
</g>
<rect x="94.308" y="207.081" style="fill:#939393;" width="51.896" height="66.313"/>
<rect x="168.358" y="156.182" style="fill:#E21B1B;" width="51.896" height="117.212"/>
<rect x="242.417" y="102.609" style="fill:#FFFFFF;" width="51.896" height="170.785"/>
<g>
</g>
<g>
</g>
<g>
</g>
<g>
</g>
<g>
</g>
<g>
</g>
<g>
</g>
<g>
</g>
<g>
</g>
<g>
</g>
<g>
</g>
<g>
</g>
<g>
</g>
<g>
</g>
<g>
</g>
</svg>
